<svg xmlns="http://www.w3.org/2000/svg" version="1.1" xmlns:xlink="http://www.w3.org/1999/xlink" xmlns:svgjs="http://svgjs.dev/svgjs" width="1000" height="623" viewBox="0 0 1000 623"><g transform="matrix(1,0,0,1,-0.6060606060606233,0.2522267206477409)"><svg viewBox="0 0 396 247" data-background-color="#89939e" preserveAspectRatio="xMidYMid meet" height="623" width="1000" xmlns="http://www.w3.org/2000/svg" xmlns:xlink="http://www.w3.org/1999/xlink"><g id="tight-bounds" transform="matrix(1,0,0,1,0.2400000000000091,-0.09999999999999432)"><svg viewBox="0 0 395.52 247.2" height="247.2" width="395.52"><g><svg></svg></g><g><svg viewBox="0 0 395.52 247.2" height="247.2" width="395.52"><g transform="matrix(1,0,0,1,75.54432,105.47603332301509)"><svg viewBox="0 0 244.43135999999998 36.2479333539698" height="36.2479333539698" width="244.43135999999998"><g><svg viewBox="0 0 275.07497335158564 40.79222609322018" height="36.2479333539698" width="244.43135999999998"><g transform="matrix(1,0,0,1,30.64361335158565,0.718242282876286)"><svg viewBox="0 0 244.43135999999998 39.35574152746761" height="39.35574152746761" width="244.43135999999998"><g id="textblocktransform"><svg viewBox="0 0 244.43135999999998 39.35574152746761" height="39.35574152746761" width="244.43135999999998" id="textblock"><g><svg viewBox="0 0 244.43135999999998 39.35574152746761" height="39.35574152746761" width="244.43135999999998"><g transform="matrix(1,0,0,1,0,0)"><svg width="244.43135999999998" viewBox="2.200000047683716 -35.75 223.8800048828125 36.04999923706055" height="39.35574152746761" data-palette-color="#ffffff"><g class="undefined-text-0" data-fill-palette-color="primary" id="text-0"><path d="M18.8 0.25L18.8 0.25Q15.1 0.25 12.05-1.28 9-2.8 6.8-5.35 4.6-7.9 3.4-11.13 2.2-14.35 2.2-17.75L2.2-17.75Q2.2-21.3 3.45-24.53 4.7-27.75 6.98-30.28 9.25-32.8 12.28-34.27 15.3-35.75 18.85-35.75L18.85-35.75Q22.6-35.75 25.63-34.2 28.65-32.65 30.85-30.05 33.05-27.45 34.25-24.25 35.45-21.05 35.45-17.75L35.45-17.75Q35.45-14.15 34.2-10.93 32.95-7.7 30.68-5.18 28.4-2.65 25.38-1.2 22.35 0.25 18.8 0.25ZM18.85-2.1L18.85-2.1Q22-2.1 24.6-3.45 27.2-4.8 29.05-7.05 30.9-9.3 31.88-12.08 32.85-14.85 32.85-17.75L32.85-17.75Q32.85-20.8 31.83-23.6 30.8-26.4 28.9-28.6 27-30.8 24.43-32.1 21.85-33.4 18.85-33.4L18.85-33.4Q15.65-33.4 13.05-32.05 10.45-30.7 8.63-28.45 6.8-26.2 5.78-23.43 4.75-20.65 4.75-17.75L4.75-17.75Q4.75-14.7 5.8-11.9 6.85-9.1 8.72-6.9 10.6-4.7 13.18-3.4 15.75-2.1 18.85-2.1ZM31.6 0L23.05-10.3 25.7-10.3 34.25 0 31.6 0ZM56.55 0.25L56.55 0.25Q52.3 0.25 49.45-1.25 46.6-2.75 44.9-5.33 43.2-7.9 42.45-11.1 41.7-14.3 41.7-17.65L41.7-17.65 41.7-35.5 44.25-35.5 44.25-17.65Q44.25-14.75 44.85-11.95 45.45-9.15 46.82-6.93 48.2-4.7 50.57-3.4 52.95-2.1 56.5-2.1L56.5-2.1Q60.1-2.1 62.47-3.45 64.85-4.8 66.22-7.03 67.6-9.25 68.17-12.03 68.75-14.8 68.75-17.65L68.75-17.65 68.75-35.5 71.3-35.5 71.3-17.65Q71.3-14.1 70.52-10.88 69.75-7.65 68-5.15 66.25-2.65 63.45-1.2 60.65 0.25 56.55 0.25ZM82.6 0L80.05 0 80.05-35.5 82.6-35.5 82.6 0ZM89.44-18L89.44-18Q89.44-21.2 90.57-24.33 91.69-27.45 93.84-30.03 95.99-32.6 99.12-34.15 102.24-35.7 106.24-35.7L106.24-35.7Q110.99-35.7 114.34-33.52 117.69-31.35 119.34-27.95L119.34-27.95 117.24-26.75Q115.99-29.2 114.17-30.65 112.34-32.1 110.24-32.73 108.14-33.35 106.04-33.35L106.04-33.35Q102.69-33.35 100.07-32 97.44-30.65 95.64-28.4 93.84-26.15 92.92-23.4 91.99-20.65 91.99-17.85L91.99-17.85Q91.99-14.7 93.09-11.88 94.19-9.05 96.12-6.85 98.04-4.65 100.62-3.35 103.19-2.05 106.19-2.05L106.19-2.05Q108.34-2.05 110.57-2.78 112.79-3.5 114.74-5.03 116.69-6.55 117.89-9L117.89-9 120.09-7.95Q118.94-5.3 116.64-3.45 114.34-1.6 111.54-0.65 108.74 0.3 105.99 0.3L105.99 0.3Q102.39 0.3 99.34-1.28 96.29-2.85 94.07-5.48 91.84-8.1 90.64-11.38 89.44-14.65 89.44-18ZM128.94 0L126.39 0 126.39-35.5 128.94-35.5 128.94-13.95 149.64-35.5 152.59-35.5 137.84-19.95 153.34 0 150.39 0 136.14-18.35 128.94-10.95 128.94 0ZM160.69 0L158.14 0 158.14-35.5 181.24-35.5 181.24-33.2 160.69-33.2 160.69-19.1 178.14-19.1 178.14-16.9 160.69-16.9 160.69 0ZM190.38 0L187.84 0 187.84-35.5 190.38-35.5 190.38 0ZM195.38-35.5L198.38-35.5 210.78-19.4 223.13-35.5 226.08-35.5 212.18-17.5 225.68 0 222.73 0 210.78-15.6 198.78 0 195.78 0 209.28-17.5 195.38-35.5Z" fill="#ffffff" data-fill-palette-color="primary"></path></g></svg></g></svg></g></svg></g></svg></g><g><svg viewBox="0 0 21.352667314747208 40.79222609322018" height="40.79222609322018" width="21.352667314747208"><g><svg xmlns="http://www.w3.org/2000/svg" xmlns:xlink="http://www.w3.org/1999/xlink" version="1.1" x="0" y="0" viewBox="19.682355880737305 3.5 35.572967529296875 67.95874786376953" enable-background="new 0 0 75 75" xml:space="preserve" height="40.79222609322018" width="21.352667314747208" class="icon-icon-0" data-fill-palette-color="accent" id="icon-0"><path d="M21.2 59.5c-1.1-2.6-4.2-12.2 3.8-24.7C36 18 31.7 3.5 31.7 3.5S46 8.8 41.7 37.5c-1 6.5-0.9 9 2 9.4 5 0.7 3.1-19.7 3.1-19.7s3.9 2 6.8 12.1c1.5 5.3 1.8 9.5 1.6 12.5-1 18.1-16.5 19.6-16.5 19.6S26.9 73 21.2 59.5z" fill="#ffffff" data-fill-palette-color="accent"></path></svg></g></svg></g></svg></g></svg></g><path d="M180.786 99.476L180.786 36.239 6.064 36.239 6.064 210.961 180.786 210.961 180.786 147.724 177.632 147.724 177.632 207.807 9.218 207.807 9.218 39.393 177.632 39.393 177.632 99.476Z" fill="#ffffff" stroke="transparent" data-fill-palette-color="primary"></path></svg></g><defs></defs></svg><rect width="395.52" height="247.2" fill="none" stroke="none" visibility="hidden"></rect></g></svg></g></svg>